<svg xmlns="http://www.w3.org/2000/svg" width="512" height="512" viewBox="27 27 54 54">
  <defs>
    <clipPath id="bloecke">
      <path d="M32.93,27 L46.09,27 A5.93,5.93 0 0 1 52.02,32.93 L52.02,46.09 A5.93,5.93 0 0 1 46.09,52.02 L32.93,52.02 A5.93,5.93 0 0 1 27,46.09 L27,32.93 A5.93,5.93 0 0 1 32.93,27 Z M61.91,27 L75.07,27 A5.93,5.93 0 0 1 81,32.93 L81,46.09 A5.93,5.93 0 0 1 75.07,52.02 L61.91,52.02 A5.93,5.93 0 0 1 55.98,46.09 L55.98,32.93 A5.93,5.93 0 0 1 61.91,27 Z M32.93,55.98 L46.09,55.98 A5.93,5.93 0 0 1 52.02,61.91 L52.02,75.07 A5.93,5.93 0 0 1 46.09,81 L32.93,81 A5.93,5.93 0 0 1 27,75.07 L27,61.91 A5.93,5.93 0 0 1 32.93,55.98 Z M61.91,55.98 L75.07,55.98 A5.93,5.93 0 0 1 81,61.91 L81,75.07 A5.93,5.93 0 0 1 75.07,81 L61.91,81 A5.93,5.93 0 0 1 55.98,75.07 L55.98,61.91 A5.93,5.93 0 0 1 61.91,55.98 Z"/>
    </clipPath>
  </defs>
  <!-- Drei orange Blöcke -->
  <path fill="#E85510" d="M32.93,27 L46.09,27 A5.93,5.93 0 0 1 52.02,32.93 L52.02,46.09 A5.93,5.93 0 0 1 46.09,52.02 L32.93,52.02 A5.93,5.93 0 0 1 27,46.09 L27,32.93 A5.93,5.93 0 0 1 32.93,27 Z"/>
  <path fill="#E85510" d="M32.93,55.98 L46.09,55.98 A5.93,5.93 0 0 1 52.02,61.91 L52.02,75.07 A5.93,5.93 0 0 1 46.09,81 L32.93,81 A5.93,5.93 0 0 1 27,75.07 L27,61.91 A5.93,5.93 0 0 1 32.93,55.98 Z"/>
  <path fill="#E85510" d="M61.91,55.98 L75.07,55.98 A5.93,5.93 0 0 1 81,61.91 L81,75.07 A5.93,5.93 0 0 1 75.07,81 L61.91,81 A5.93,5.93 0 0 1 55.98,75.07 L55.98,61.91 A5.93,5.93 0 0 1 61.91,55.98 Z"/>
  <!-- Gelber Block rechts oben -->
  <path fill="#F5B91E" d="M61.91,27 L75.07,27 A5.93,5.93 0 0 1 81,32.93 L81,46.09 A5.93,5.93 0 0 1 75.07,52.02 L61.91,52.02 A5.93,5.93 0 0 1 55.98,46.09 L55.98,32.93 A5.93,5.93 0 0 1 61.91,27 Z"/>
  <!-- Paket-Kreuzband, auf die Blöcke beschnitten (Zwischenräume bleiben frei) -->
  <g clip-path="url(#bloecke)">
    <rect x="46.5" y="27" width="15" height="54" fill="#FFFFFF" fill-opacity="0.55"/>
    <rect x="27" y="46.5" width="54" height="15" fill="#FFFFFF" fill-opacity="0.55"/>
  </g>
</svg>
